:FULLY-SPECIFIED
:FORCE-ALL-JOINTS-BE-3DOF
:DEGREES
81
root 9.33908 16.3878 -25.1108 4.17812 -7.82572 2.19077
lfemur -16.9255 2.81162 -26.8818
ltibia 28.1867 -0 0
lfoot -14.9438 9.4244 -0.00971794
ltoes -0.891716 0 0
rfemur -21.9268 1.10404 18.6155
rtibia 60.4157 -0 0
rfoot -16.5151 -12.2029 0.0449526
rtoes -11.1515 0 0
lowerback -5.06303 -1.09272 -3.66742
upperback -1.50242 -1.3198 2.61669
thorax 1.43753 -0.665977 4.69485
lowerneck -22.3876 -3.96902 -11.6629
upperneck 19.6081 -4.56208 12.038
head 10.5522 -1.55207 5.60491
lclavicle -1.9817e-14 2.14841e-15 -3.28293e-32
lhumerus -27.2774 -12.5771 87.1088
lradius 26.4646 -0 0
lwrist 1.67871 0 0
lhand -9.56167 -22.7927 0.0225005
lfingers 7.12502 -0 0
lthumb 16.4038 6.50955 0.0130783
rclavicle -1.9817e-14 2.14841e-15 -3.28293e-32
rhumerus -43.8433 14.0949 -89.2775
rradius 40.6077 -0 0
rwrist -21.9466 0 0
rhand -30.7132 -23.527 0.000340367
rfingers 7.12502 -0 0
rthumb -4.00614 -53.4692 0.000333014
82
root 9.33311 16.3876 -25.204 4.13603 -7.64697 2.354
lfemur -16.1473 2.74977 -27.1129
ltibia 27.7832 -0 0
lfoot -15.1977 9.36027 -0.00436294
ltoes -0.913005 0 0
rfemur -22.8345 1.11123 18.3985
rtibia 60.9731 -0 0
rfoot -16.8021 -12.4094 0.0215507
rtoes -10.9769 0 0
lowerback -5.0393 -1.15258 -3.79303
upperback -1.50317 -1.39264 2.58896
thorax 1.43177 -0.702843 4.72778
lowerneck -22.3735 -3.97389 -11.6679
upperneck 19.6787 -4.56266 11.9909
head 10.5734 -1.55887 5.5902
lclavicle -1.98992e-14 2.73931e-15 -7.95364e-33
lhumerus -27.0215 -12.791 87.1137
lradius 26.6678 -0 0
lwrist 1.80774 0 0
lhand -9.83695 -22.8931 0.0105669
lfingers 7.12502 -0 0
lthumb 16.1398 6.44358 0.00614506
rclavicle -1.98992e-14 2.73931e-15 -7.95364e-33
rhumerus -43.8429 13.9289 -89.1378
rradius 40.3037 -0 0
rwrist -21.8362 0 0
rhand -30.7027 -23.3529 0.000184542
rfingers 7.12502 -0 0
rthumb -3.99598 -53.2952 0.000180083
83
root 9.32359 16.3847 -25.3211 4.10147 -7.46086 2.50374
lfemur -15.3819 2.69433 -27.3161
ltibia 27.3581 0 0
lfoot -15.4155 9.28101 0
ltoes -0.941018 0 0
rfemur -23.6641 1.14515 18.1767
rtibia 61.3726 0 0
rfoot -17.074 -12.5931 0
rtoes -10.8607 0 0
lowerback -5.02824 -1.211 -3.90958
upperback -1.50296 -1.46382 2.56402
thorax 1.43427 -0.739042 4.75856
lowerneck -22.3555 -3.98132 -11.6757
upperneck 19.7455 -4.56661 11.9463
head 10.5931 -1.56725 5.5762
lclavicle -2.00524e-14 3.18055e-15 0
lhumerus -26.802 -13.014 87.1404
lradius 26.8783 0 0
lwrist 1.9389 0 0
lhand -10.0739 -22.9826 0
lfingers 7.12502 0 0
lthumb 15.9125 6.3837 0
rclavicle -2.00524e-14 3.18055e-15 0
rhumerus -43.8526 13.7666 -89.0045
rradius 40.0196 0 0
rwrist -21.7294 0 0
rhand -30.69 -23.203 0
rfingers 7.12502 0 0
rthumb -3.98376 -53.1455 0
84
root 9.33388 16.3881 -25.1853 4.07305 -7.26074 2.64559
lfemur -14.6037 2.64088 -27.4997
ltibia 26.8864 -0 0
lfoot -15.6099 9.18076 0.00332361
ltoes -0.976881 0 0
rfemur -24.4448 1.2104 17.9408
rtibia 61.6224 -0 0
rfoot -17.339 -12.7617 -0.019966
rtoes -10.7966 0 0
lowerback -5.03002 -1.27016 -4.02169
upperback -1.50168 -1.5359 2.54061
thorax 1.44559 -0.775898 4.78809
lowerneck -22.3327 -3.99119 -11.6863
upperneck 19.8113 -4.57371 11.9028
head 10.6121 -1.57732 5.56254
lclavicle -2.02789e-14 3.4818e-15 -1.08923e-32
lhumerus -26.6081 -13.2539 87.1885
lradius 27.1065 -0 0
lwrist 2.07925 0 0
lhand -10.2849 -23.0659 -0.00955584
lfingers 7.12502 -0 0
lthumb 15.7101 6.32653 -0.0055814
rclavicle -2.02789e-14 3.4818e-15 -1.08923e-32
rhumerus -43.8718 13.6029 -88.8725
rradius 39.7494 -0 0
rwrist -21.6241 0 0
rhand -30.6759 -23.0714 -0.000186466
rfingers 7.12502 -0 0
rthumb -3.97012 -53.0141 -0.000181569
85
root 9.34215 16.3901 -25.0373 4.04915 -7.04061 2.78554
lfemur -13.7881 2.58552 -27.6732
ltibia 26.3467 -0 0
lfoot -15.7952 9.05504 0.00555761
ltoes -1.02143 0 0
rfemur -25.2093 1.30892 17.6824
rtibia 61.7398 -0 0
rfoot -17.6055 -12.9236 -0.0388831
rtoes -10.7749 0 0
lowerback -5.04395 -1.33217 -4.13419
upperback -1.49931 -1.61137 2.51735
thorax 1.4657 -0.814686 4.81731
lowerneck -22.3043 -4.00326 -11.6999
upperneck 19.8786 -4.58358 11.8591
head 10.6311 -1.58911 5.54887
lclavicle -2.05759e-14 3.66233e-15 -4.0987e-32
lhumerus -26.4277 -13.5171 87.2562
lradius 27.3616 -0 0
lwrist 2.23531 0 0
lhand -10.4841 -23.1483 -0.0186302
lfingers 7.12502 -0 0
lthumb 15.5189 6.26856 -0.0109288
rclavicle -2.05759e-14 3.66233e-15 -4.0987e-32
rhumerus -43.8993 13.4328 -88.7365
rradius 39.4861 -0 0
rwrist -21.5183 0 0
rhand -30.6611 -22.951 -0.000348262
rfingers 7.12502 -0 0
rthumb -3.95581 -52.894 -0.0003392
86
root 9.34851 16.3906 -24.8782 4.02972 -6.80151 2.92345
lfemur -12.9378 2.52858 -27.8368
ltibia 25.7433 -0 0
lfoot -15.9713 8.90533 0.00665488
ltoes -1.07437 0 0
rfemur -25.9577 1.43846 17.4025
rtibia 61.7309 -0 0
rfoot -17.8731 -13.0788 -0.0567686
rtoes -10.7936 0 0
lowerback -5.06938 -1.39685 -4.24683
upperback -1.4959 -1.68997 2.49428
thorax 1.49412 -0.855273 4.84618
lowerneck -22.2705 -4.01745 -11.7162
upperneck 19.9474 -4.59614 11.8154
head 10.65 -1.60254 5.5352
lclavicle -2.09398e-14 3.72816e-15 -8.87596e-32
lhumerus -26.2608 -13.8022 87.3427
lradius 27.6421 -0 0
lwrist 2.40615 0 0
lhand -10.6717 -23.2295 -0.0272141
lfingers 7.12502 -0 0
lthumb 15.3389 6.20995 -0.0160393
rclavicle -2.09398e-14 3.72816e-15 -8.87596e-32
rhumerus -43.9346 13.2569 -88.5969
rradius 39.2296 -0 0
rwrist -21.4119 0 0
rhand -30.6456 -22.8416 -0.000486979
rfingers 7.12502 -0 0
rthumb -3.94085 -52.7848 -0.00047443
87
root 9.35305 16.3898 -24.7088 4.01471 -6.54445 3.05917
lfemur -12.0556 2.47035 -27.9908
ltibia 25.0809 -0 0
lfoot -16.1381 8.7331 0.00658938
ltoes -1.13541 0 0
rfemur -26.6903 1.59681 17.1018
rtibia 61.6016 -0 0
rfoot -18.1412 -13.2271 -0.0736362
rtoes -10.8507 0 0
lowerback -5.10569 -1.46403 -4.35939
upperback -1.4915 -1.77146 2.47143
thorax 1.53041 -0.897527 4.87465
lowerneck -22.2316 -4.03368 -11.7352
upperneck 20.0172 -4.6113 11.7716
head 10.6688 -1.61755 5.52156
lclavicle -2.13667e-14 3.68535e-15 -1.52337e-31
lhumerus -26.1073 -14.1079 87.4471
lradius 27.9463 -0 0
lwrist 2.59083 0 0
lhand -10.8479 -23.3096 -0.035299
lfingers 7.12502 -0 0
lthumb 15.1699 6.15085 -0.0209091
rclavicle -2.13667e-14 3.68535e-15 -1.52337e-31
rhumerus -43.9774 13.0756 -88.4537
rradius 38.9799 -0 0
rwrist -21.3052 0 0
rhand -30.6294 -22.7427 -0.000603944
rfingers 7.12502 -0 0
rthumb -3.92526 -52.6862 -0.00058854
88
root 9.3559 16.3876 -24.5301 4.00405 -6.27045 3.19258
lfemur -11.1443 2.41111 -28.1354
ltibia 24.3639 -0 0
lfoot -16.2956 8.53984 0.00535504
ltoes -1.20426 0 0
rfemur -27.4072 1.78182 16.7815
rtibia 61.3577 -0 0
rfoot -18.4095 -13.3686 -0.0894962
rtoes -10.9442 0 0
lowerback -5.15222 -1.53351 -4.47163
upperback -1.48618 -1.85559 2.44884
thorax 1.57407 -0.941314 4.90267
lowerneck -22.1878 -4.05188 -11.7567
upperneck 20.088 -4.62897 11.728
head 10.6875 -1.63406 5.50799
lclavicle -2.18529e-14 3.53993e-15 -2.2957e-31
lhumerus -25.9674 -14.4327 87.5684
lradius 28.2726 -0 0
lwrist 2.78842 0 0
lhand -11.0127 -23.3883 -0.042877
lfingers 7.12502 -0 0
lthumb 15.0116 6.09144 -0.0255332
rclavicle -2.18529e-14 3.53993e-15 -2.2957e-31
rhumerus -44.0273 12.8895 -88.3072
rradius 38.7368 -0 0
rwrist -21.1982 0 0
rhand -30.6126 -22.654 -0.000700254
rfingers 7.12502 -0 0
rthumb -3.90905 -52.5978 -0.000682592
